{
  "accessors": [
    {
      "bufferView": 2,
      "componentType": 5126,
      "count": 44010,
      "max": [
        30.885395050048828,
        61.406375885009766,
        29.840282440185547
      ],
      "min": [
        -31.13956642150879,
        -0.7445698976516724,
        -31.370643615722656
      ],
      "type": "VEC3"
    },
    {
      "bufferView": 2,
      "byteOffset": 528120,
      "componentType": 5126,
      "count": 44010,
      "max": [
        1.0,
        1.0,
        1.0
      ],
      "min": [
        -1.0,
        -1.0,
        -0.9999997019767761
      ],
      "type": "VEC3"
    },
    {
      "bufferView": 3,
      "componentType": 5126,
      "count": 44010,
      "max": [
        1.0,
        1.0,
        0.9998448491096497,
        1.0
      ],
      "min": [
        -0.9999964833259583,
        -0.9983447194099426,
        -0.999783456325531,
        -1.0
      ],
      "type": "VEC4"
    },
    {
      "bufferView": 1,
      "componentType": 5126,
      "count": 44010,
      "max": [
        0.981846809387207,
        0.9956505298614502
      ],
      "min": [
        0.009156228974461555,
        0.0005317330360412598
      ],
      "type": "VEC2"
    },
    {
      "bufferView": 0,
      "componentType": 5125,
      "count": 256362,
      "type": "SCALAR"
    }
  ],
  "asset": {
    "extras": {
      "author": "James T. McLaury (https://sketchfab.com/james.t.mclaury)",
      "license": "CC-BY-4.0 (http://creativecommons.org/licenses/by/4.0/)",
      "source": "https://sketchfab.com/3d-models/pokeball-3210b69740104adcb2a3150ba075b216",
      "title": "PokeBall"
    },
    "generator": "Sketchfab-15.30.0",
    "version": "2.0"
  },
  "bufferViews": [
    {
      "buffer": 0,
      "byteLength": 1025448,
      "name": "floatBufferViews",
      "target": 34963
    },
    {
      "buffer": 0,
      "byteLength": 352080,
      "byteOffset": 1025448,
      "byteStride": 8,
      "name": "floatBufferViews",
      "target": 34962
    },
    {
      "buffer": 0,
      "byteLength": 1056240,
      "byteOffset": 1377528,
      "byteStride": 12,
      "name": "floatBufferViews",
      "target": 34962
    },
    {
      "buffer": 0,
      "byteLength": 704160,
      "byteOffset": 2433768,
      "byteStride": 16,
      "name": "floatBufferViews",
      "target": 34962
    }
  ],
  "buffers": [
    {
      "byteLength": 3137928,
      "uri": "scene.bin"
    }
  ],
  "images": [
    {
      "uri": "textures/PokeBall_M_baseColor.png"
    },
    {
      "uri": "textures/PokeBall_M_metallicRoughness.png"
    },
    {
      "uri": "textures/PokeBall_M_normal.png"
    }
  ],
  "materials": [
    {
      "doubleSided": true,
      "name": "PokeBall_M",
      "normalTexture": {
        "index": 2
      },
      "pbrMetallicRoughness": {
        "baseColorTexture": {
          "index": 0
        },
        "metallicRoughnessTexture": {
          "index": 1
        }
      }
    }
  ],
  "meshes": [
    {
      "name": "PokeBall_SM_PokeBall_M_0",
      "primitives": [
        {
          "attributes": {
            "NORMAL": 1,
            "POSITION": 0,
            "TANGENT": 2,
            "TEXCOORD_0": 3
          },
          "indices": 4,
          "material": 0,
          "mode": 4
        }
      ]
    }
  ],
  "nodes": [
    {
      "children": [
        1
      ],
      "matrix": [
        1.0,
        0.0,
        0.0,
        0.0,
        0.0,
        2.220446049250313e-16,
        -1.0,
        0.0,
        0.0,
        1.0,
        2.220446049250313e-16,
        0.0,
        0.0,
        0.0,
        0.0,
        1.0
      ],
      "name": "Sketchfab_model"
    },
    {
      "children": [
        2
      ],
      "matrix": [
        0.009999999776482582,
        0.0,
        0.0,
        0.0,
        0.0,
        0.0,
        0.009999999776482582,
        0.0,
        0.0,
        -0.009999999776482582,
        0.0,
        0.0,
        0.0,
        0.0,
        0.0,
        1.0
      ],
      "name": "a60dddb04bd4465ea0a1bb22b7d3bfec.fbx"
    },
    {
      "children": [
        3
      ],
      "name": "RootNode"
    },
    {
      "children": [
        4
      ],
      "matrix": [
        -1.0,
        1.224646799147353e-16,
        -1.2246467991473535e-16,
        0.0,
        1.224646799147353e-16,
        1.0,
        1.224646799147353e-16,
        0.0,
        1.2246467991473535e-16,
        1.224646799147353e-16,
        -1.0,
        0.0,
        -0.25417137145996094,
        0.0,
        -1.5303611755371094,
        1.0
      ],
      "name": "PokeBall_SM"
    },
    {
      "mesh": 0,
      "name": "PokeBall_SM_PokeBall_M_0"
    }
  ],
  "samplers": [
    {
      "magFilter": 9729,
      "minFilter": 9987,
      "wrapS": 10497,
      "wrapT": 10497
    }
  ],
  "scene": 0,
  "scenes": [
    {
      "name": "Sketchfab_Scene",
      "nodes": [
        0
      ]
    }
  ],
  "textures": [
    {
      "sampler": 0,
      "source": 0
    },
    {
      "sampler": 0,
      "source": 1
    },
    {
      "sampler": 0,
      "source": 2
    }
  ]
}
